<?xml version="1.0" encoding="iso-8859-1"?>
<!-- Generator: Adobe Illustrator 16.0.0, SVG Export Plug-In . SVG Version: 6.00 Build 0)  -->
<!DOCTYPE svg PUBLIC "-//W3C//DTD SVG 1.1//EN" "http://www.w3.org/Graphics/SVG/1.1/DTD/svg11.dtd">
<svg version="1.1" id="Capa_1" xmlns="http://www.w3.org/2000/svg" xmlns:xlink="http://www.w3.org/1999/xlink" x="0px" y="0px"
	 width="123.122px" height="123.122px" viewBox="0 0 123.122 123.122" style="enable-background:new 0 0 123.122 123.122;"
	 xml:space="preserve">
<g>
	<g>
		<path d="M81.624,72.479c0,7.243,5.873,13.108,13.115,13.108c7.239,0,13.112-5.865,13.112-13.108
			c0-7.246-5.873-13.114-13.112-13.114C87.497,59.365,81.624,65.233,81.624,72.479z"/>
		<path d="M103.457,88.782c-0.218-0.135-0.45-0.233-0.675-0.33c-1.466-0.975-3.104-1.689-4.778-2.102l-3.266,3.288l-3.166-3.324
			c-0.014,0-0.022,0-0.033,0.005c-1.68,0.4-3.328,1.115-4.797,2.087c-0.26,0.105-0.52,0.225-0.771,0.376
			c-7.966,4.885-13.279,8.975-16.078,24.377h21.313l0.341-1.896l3.156-21.137h0.066l3.162,21.137l0.375,1.896h21.229
			C116.736,97.756,111.424,93.666,103.457,88.782z"/>
		<path d="M38.842,32.017c7.24,0,13.113-5.865,13.113-13.109c0-7.245-5.873-13.114-13.113-13.114
			c-7.242,0-13.114,5.869-13.114,13.114C25.728,26.152,31.6,32.017,38.842,32.017z"/>
		<path d="M35.653,57.69l3.156-21.135h0.067l3.161,21.135l0.376,1.897h21.229c-2.802-15.402-8.115-19.491-16.081-24.377
			c-0.218-0.135-0.45-0.232-0.675-0.329c-1.466-0.975-3.105-1.691-4.778-2.103l-3.267,3.288l-3.165-3.323
			c-0.014,0-0.022,0-0.033,0.004c-1.68,0.401-3.328,1.115-4.797,2.088c-0.261,0.104-0.519,0.224-0.771,0.375
			c-7.967,4.886-13.279,8.975-16.08,24.377h21.315L35.653,57.69z"/>
		<path d="M97.688,42.632l-12.457,4.29l25.472,12.421l12.42-25.472l-13.569,4.674C102.117,17.44,81.169,3.077,57.825,4.931
			l1.001,12.508C76.346,16.034,92.072,26.804,97.688,42.632z"/>
		<path d="M25.418,80.552l12.451-4.313L12.375,63.862L0,89.355l13.56-4.697c7.475,21.094,28.446,35.421,51.786,33.525l-1.021-12.506
			C46.805,107.112,31.061,96.371,25.418,80.552z"/>
	</g>
</g>
<g>
</g>
<g>
</g>
<g>
</g>
<g>
</g>
<g>
</g>
<g>
</g>
<g>
</g>
<g>
</g>
<g>
</g>
<g>
</g>
<g>
</g>
<g>
</g>
<g>
</g>
<g>
</g>
<g>
</g>
</svg>
