<?xml version="1.0" encoding="iso-8859-1"?>
<!-- Generator: Adobe Illustrator 16.0.0, SVG Export Plug-In . SVG Version: 6.00 Build 0)  -->
<!DOCTYPE svg PUBLIC "-//W3C//DTD SVG 1.1//EN" "http://www.w3.org/Graphics/SVG/1.1/DTD/svg11.dtd">
<svg version="1.1" id="Capa_1" xmlns="http://www.w3.org/2000/svg" xmlns:xlink="http://www.w3.org/1999/xlink" x="0px" y="0px"
	 width="465.495px" height="465.495px" viewBox="0 0 465.495 465.495" style="enable-background:new 0 0 465.495 465.495;"
	 xml:space="preserve">
<g>
	<g>
		<path d="M436.11,265.935c-13.593-5.772-39.837-11.161-62.991-15.914c-13.313-2.732-29.831-6.125-33.276-7.754
			c-13.927-9.912-27.999-18.879-41.839-26.66c-13.877-7.802-29.2-15.39-47.197-18.07c-12.467-1.856-25.217-3.104-37.895-3.706
			c-37.936-1.807-69.429-0.325-99.106,4.664c-3.172,0.533-6.351,1.13-9.425,1.708c-2.81,0.526-5.714,1.071-8.548,1.556
			c-0.972,0.166-1.901,0.521-2.735,1.047l-57.463,36.192c-28.089,4.234-34.052,52.766-34.683,58.774
			c-1.545,12.661-2.295,26.062,6.614,38.496c6.212,8.664,14.899,12.642,26.546,12.145l14.5,0.007
			c4.13,20.926,22.614,36.758,44.733,36.758c22.104,0,40.58-15.812,44.727-36.717l189.519,0.086
			c4.18,20.863,22.637,36.631,44.711,36.631c8.885,0,17.496-2.558,24.904-7.396c10.393-6.786,17.413-17.317,19.793-29.194
			l36.745,0.017c7.111,0,8.69-7.759,9.449-11.486C466.305,321.837,467.501,279.268,436.11,265.935z M248.596,212.373
			c15.597,2.323,29.432,9.212,42.058,16.31c9.506,5.345,19.134,11.286,28.753,17.716H197.938v-38.109
			c4.652,0.121,9.397,0.292,14.261,0.523C224.379,209.393,236.625,210.591,248.596,212.373z M99.837,216.288
			c2.464-0.434,4.921-0.896,7.312-1.343c3.006-0.564,6.113-1.148,9.145-1.658c20.664-3.474,42.325-5.169,66.646-5.187v38.298H52.028
			L99.837,216.288z M93.346,370.177c-16.874,0-30.602-13.728-30.602-30.602s13.728-30.603,30.602-30.603
			s30.602,13.729,30.602,30.603S110.22,370.177,93.346,370.177z M389.005,365.221c-4.964,3.242-10.738,4.956-16.702,4.956
			c-16.874,0-30.603-13.728-30.603-30.602s13.729-30.603,30.603-30.603s30.602,13.729,30.602,30.603
			C402.903,349.95,397.708,359.537,389.005,365.221z M448.626,333.6l-31.129-0.014c-2.942-22.323-22.082-39.612-45.194-39.612
			c-23.101,0-42.229,17.27-45.19,39.572l-188.585-0.086c-2.999-22.262-22.109-39.486-45.18-39.486
			c-23.056,0-42.157,17.203-45.174,39.444l-14.22-0.006c-0.079,0.008-0.233,0.003-0.351,0.008
			c-6.701,0.318-10.581-1.341-13.843-5.89c-5.804-8.102-5.244-17.092-3.91-28.003c0.005-0.042,0.011-0.089,0.015-0.13
			c1.063-10.099,5.088-27.853,12.096-37.999h326.255c4.444,0.955,9.688,2.042,15.889,3.315c21.354,4.384,47.931,9.84,60.145,15.027
			c7,2.973,12.215,8.688,15.501,16.986C451.027,310.065,450,326.292,448.626,333.6z"/>
		<path d="M460.604,163.938L236.769,80.787c-1.685-0.626-3.54-0.626-5.224,0L7.71,163.938c-3.883,1.443-5.861,5.761-4.419,9.644
			c1.44,3.882,5.759,5.857,9.642,4.419l221.226-82.182l221.226,82.182c0.859,0.32,1.742,0.471,2.609,0.471
			c3.045,0,5.909-1.868,7.031-4.89C466.466,169.699,464.487,165.382,460.604,163.938z"/>
	</g>
</g>
<g>
</g>
<g>
</g>
<g>
</g>
<g>
</g>
<g>
</g>
<g>
</g>
<g>
</g>
<g>
</g>
<g>
</g>
<g>
</g>
<g>
</g>
<g>
</g>
<g>
</g>
<g>
</g>
<g>
</g>
</svg>
