<?xml version="1.0" encoding="iso-8859-1"?>
<!-- Generator: Adobe Illustrator 16.0.0, SVG Export Plug-In . SVG Version: 6.00 Build 0)  -->
<!DOCTYPE svg PUBLIC "-//W3C//DTD SVG 1.1//EN" "http://www.w3.org/Graphics/SVG/1.1/DTD/svg11.dtd">
<svg version="1.1" id="Capa_1" xmlns="http://www.w3.org/2000/svg" xmlns:xlink="http://www.w3.org/1999/xlink" x="0px" y="0px"
	 width="314.014px" height="314.014px" viewBox="0 0 314.014 314.014" style="enable-background:new 0 0 314.014 314.014;"
	 xml:space="preserve">
<g>
	<g id="_x37_8._Messages">
		<g>
			<path d="M157.007,110.109c-13.01,0-23.552,10.541-23.552,23.549c0,13.004,10.542,23.552,23.552,23.552
				c13.004,0,23.552-10.547,23.552-23.552C180.559,120.65,170.011,110.109,157.007,110.109z M157.007,8.054
				C70.292,8.054,0,64.286,0,133.653c0,46.464,31.612,86.943,78.503,108.671v48.334c0,17.352,8.736,20.401,19.514,6.809
				l32.863-40.079c8.518,1.143,17.2,1.876,26.126,1.876c86.709,0,157.007-56.24,157.007-125.611
				C314.014,64.286,243.716,8.054,157.007,8.054z M157.007,227.857c-69.373,0-125.605-42.174-125.605-94.205
				c0-52.024,56.232-94.199,125.605-94.199c69.364,0,125.604,42.174,125.604,94.199
				C282.611,185.684,226.371,227.857,157.007,227.857z M219.812,110.109c-13.013,0-23.552,10.541-23.552,23.549
				c0,13.004,10.539,23.552,23.552,23.552c13,0,23.552-10.547,23.552-23.552C243.363,120.65,232.812,110.109,219.812,110.109z
				 M94.204,110.109c-13.01,0-23.551,10.541-23.551,23.549c0,13.004,10.542,23.552,23.551,23.552
				c12.999,0,23.552-10.547,23.552-23.552C117.756,120.65,107.203,110.109,94.204,110.109z"/>
		</g>
	</g>
</g>
<g>
</g>
<g>
</g>
<g>
</g>
<g>
</g>
<g>
</g>
<g>
</g>
<g>
</g>
<g>
</g>
<g>
</g>
<g>
</g>
<g>
</g>
<g>
</g>
<g>
</g>
<g>
</g>
<g>
</g>
</svg>
